0
SECTION
2
HEADER
9
$INSUNITS
70
1
9
$ACADVER
1
AC1014
9
$HANDSEED
5
FFFF
0
ENDSEC
0
SECTION
2
TABLES
0
TABLE
2
VPORT
5
8
100
AcDbSymbolTable
0
ENDTAB
0
TABLE
2
LTYPE
5
5
100
AcDbSymbolTable
0
LTYPE
5
14
100
AcDbSymbolTableRecord
100
AcDbLinetypeTableRecord
2
BYBLOCK
70
0
0
LTYPE
5
15
100
AcDbSymbolTableRecord
100
AcDbLinetypeTableRecord
2
BYLAYER
70
0
0
ENDTAB
0
TABLE
2
LAYER
5
2
100
AcDbSymbolTable
70
2
0
LAYER
5
50
100
AcDbSymbolTableRecord
100
AcDbLayerTableRecord
2
0
70
0
6
CONTINUOUS
0
ENDTAB
0
TABLE
2
STYLE
5
3
100
AcDbSymbolTable
70
1
0
STYLE
5
11
100
AcDbSymbolTableRecord
100
AcDbTextStyleTableRecord
2
STANDARD
70
0
0
ENDTAB
0
TABLE
2
VIEW
5
6
100
AcDbSymbolTable
70
0
0
ENDTAB
0
TABLE
2
UCS
5
7
100
AcDbSymbolTable
70
0
0
ENDTAB
0
TABLE
2
APPID
5
9
100
AcDbSymbolTable
70
2
0
APPID
5
12
100
AcDbSymbolTableRecord
100
AcDbRegAppTableRecord
2
ACAD
70
0
0
ENDTAB
0
TABLE
2
DIMSTYLE
5
A
100
AcDbSymbolTable
70
1
0
ENDTAB
0
TABLE
2
BLOCK_RECORD
5
1
100
AcDbSymbolTable
70
1
0
BLOCK_RECORD
5
1F
100
AcDbSymbolTableRecord
100
AcDbBlockTableRecord
2
*MODEL_SPACE
0
BLOCK_RECORD
5
1B
100
AcDbSymbolTableRecord
100
AcDbBlockTableRecord
2
*PAPER_SPACE
0
ENDTAB
0
ENDSEC
0
SECTION
2
BLOCKS
0
BLOCK
5
20
100
AcDbEntity
100
AcDbBlockBegin
2
*MODEL_SPACE
0
ENDBLK
5
21
100
AcDbEntity
100
AcDbBlockEnd
0
BLOCK
5
1C
100
AcDbEntity
100
AcDbBlockBegin
2
*PAPER_SPACE
0
ENDBLK
5
1D
100
AcDbEntity
100
AcDbBlockEnd
0
ENDSEC
0
SECTION
2
ENTITIES
0
LWPOLYLINE
5
100
100
AcDbEntity
8
0
100
AcDbPolyline
90
16
70
1
43
0.0
10
-2.0291055313858593
20
-4.7557282241246916
10
-2.0291055313858593
20
-4.5057282241246916
10
-2.5291055313858535
20
-4.5057282241246748
10
-2.5291055313858588
20
-4.7557282241246748
10
-4.7791055313858521
20
-4.7557282241247929
10
-4.7791055313858521
20
2.4942717758752062
10
-4.1541055313858513
20
2.4942717758752062
10
-4.1541055313858513
20
4.2442717758750002
10
2.5958944686141492
20
4.2442717758749948
10
2.5958944686141461
20
2.4942717758752018
10
3.2208944686141456
20
2.4942717758752004
10
3.2208944686141372
20
-4.7557282241247929
10
0.97089446861414375
20
-4.7557282241247929
10
0.97089446861414408
20
-4.5057282241247929
10
0.47089446861414413
20
-4.505728224124776
10
0.47089446861414397
20
-4.7557282241247929
0
LWPOLYLINE
5
101
100
AcDbEntity
8
0
100
AcDbPolyline
90
4
70
1
43
0.0
10
0.47089446861414447
20
2.2442717758752071
10
0.97089446861414441
20
2.2442717758751898
10
0.97089446861414441
20
2.4942717758752062
10
0.47089446861414447
20
2.4942717758752067
0
LWPOLYLINE
5
102
100
AcDbEntity
8
0
100
AcDbPolyline
90
4
70
1
43
0.0
10
-2.5291055313858539
20
2.2442717758752333
10
-2.0291055313858544
20
2.2442717758752333
10
-2.0291055313858486
20
2.4942717758752355
10
-2.5291055313858539
20
2.4942717758752333
0
LWPOLYLINE
5
103
100
AcDbEntity
8
0
100
AcDbPolyline
90
4
70
1
43
0.0
10
-3.4041055313858535
20
-4.380728224124792
10
-3.1541055313858544
20
-4.380728224124792
10
-3.1541055313858544
20
-3.8807282241247925
10
-3.4041055313858535
20
-3.8807282241247925
0
LWPOLYLINE
5
104
100
AcDbEntity
8
0
100
AcDbPolyline
90
4
70
1
43
0.0
10
1.5958944686141445
20
1.6192717758752069
10
1.8458944686141445
20
1.6192717758752069
10
1.8458944686141445
20
2.1192717758752067
10
1.5958944686141445
20
2.1192717758752067
0
LWPOLYLINE
5
105
100
AcDbEntity
8
0
100
AcDbPolyline
90
4
70
1
43
0.0
10
-3.4041055313858535
20
1.6192717758752069
10
-3.1541055313858544
20
1.6192717758752069
10
-3.1541055313858544
20
2.1192717758752067
10
-3.4041055313858535
20
2.1192717758752067
0
LWPOLYLINE
5
106
100
AcDbEntity
8
0
100
AcDbPolyline
90
4
70
1
43
0.0
10
1.5958944686141414
20
-3.8807282241247925
10
1.5958944686141414
20
-4.380728224124792
10
1.8458944686141412
20
-4.380728224124792
10
1.8458944686141412
20
-3.8807282241247925
0
CIRCLE
5
107
100
AcDbEntity
8
0
100
AcDbCircle
10
-4.1541055313919593
20
-2.6307282241244727
30
0
40
0.062499999999999799
210
0
220
-0
230
1
0
CIRCLE
5
108
100
AcDbEntity
8
0
100
AcDbCircle
10
-4.1541055313919202
20
0.36927177587518933
30
0
40
0.062499999999999799
210
0
220
-0
230
1
0
LWPOLYLINE
5
109
100
AcDbEntity
8
0
100
AcDbPolyline
90
4
70
1
43
0.0
10
2.7208944686168466
20
1.1192717758779995
10
2.720894468614353
20
0.61927177587367843
10
2.9708944686098944
20
0.61927177587355675
10
2.9708944686123182
20
1.1192717758776149
0
LWPOLYLINE
5
110
100
AcDbEntity
8
0
100
AcDbPolyline
90
4
70
1
43
0.0
10
-4.529105531385949
20
-2.8807282241228345
10
-4.5291055313883462
20
-3.3807282241268921
10
-4.2791055313886206
20
-3.3807282241272838
10
-4.2791055313861124
20
-2.8807282241229633
0
CIRCLE
5
111
100
AcDbEntity
8
0
100
AcDbCircle
10
2.5958944686202048
20
0.36927177587518462
30
0
40
0.062500000000000153
210
0
220
-0
230
1
0
LWPOLYLINE
5
112
100
AcDbEntity
8
0
100
AcDbPolyline
90
4
70
1
43
0.0
10
2.7208944686169056
20
-3.3807282241272891
10
2.9708944686166303
20
-3.3807282241268974
10
2.9708944686142358
20
-2.8807282241228398
10
2.7208944686143974
20
-2.8807282241229677
0
CIRCLE
5
113
100
AcDbEntity
8
0
100
AcDbCircle
10
2.5958944686202434
20
-2.6307282241244772
30
0
40
0.062500000000000153
210
0
220
-0
230
1
0
CIRCLE
5
114
100
AcDbEntity
8
0
100
AcDbCircle
10
-0.77910553138585181
20
3.4942717758752062
30
0
40
0.062499999999999972
210
0
220
-0
230
1
0
LWPOLYLINE
5
115
100
AcDbEntity
8
0
100
AcDbPolyline
90
4
70
1
43
0.0
10
-4.279105531386068
20
0.61927177587368332
10
-4.2791055313885629
20
1.1192717758780051
10
-4.5291055313840332
20
1.1192717758776198
10
-4.5291055313816084
20
0.61927177587356164
0
LWPOLYLINE
5
116
100
AcDbEntity
8
0
100
AcDbPolyline
90
4
70
1
43
0.0
10
2.2189508909898934
20
-4.1307282241284646
10
2.2189508909898921
20
1.8692717758715358
10
-3.7810491090083835
20
-4.1307282241175196
10
-3.7810491090083835
20
1.8692717758741053
0
LINE
5
117
100
AcDbEntity
8
0
100
AcDbLine
10
2.2189508909898934
20
-4.1307282241284646
30
0
11
1.8458944686141412
21
-4.1307282241278775
31
0
0
LINE
5
118
100
AcDbEntity
8
0
100
AcDbLine
10
1.5958944686141414
20
-4.1307282241256429
30
0
11
-3.1541055313858544
21
-4.1307282241193874
31
0
0
LINE
5
119
100
AcDbEntity
8
0
100
AcDbLine
10
-3.4041055313858535
20
-4.1307282241180836
30
0
11
-3.7810491090083835
21
-4.1307282241175196
31
0
0
LINE
5
120
100
AcDbEntity
8
0
100
AcDbLine
10
-3.7810491090083835
20
1.8692717758741049
30
0
11
-3.4041055313858535
21
1.8692717758739776
31
0
0
LINE
5
121
100
AcDbEntity
8
0
100
AcDbLine
10
-3.1541055313858544
20
1.8692717758733537
30
0
11
1.5958944686141445
21
1.869271775872287
31
0
0
LINE
5
122
100
AcDbEntity
8
0
100
AcDbLine
10
1.8458944686141445
20
1.8692717758716617
30
0
11
2.2189508909898921
21
1.8692717758715358
31
0
0
ENDSEC
0
SECTION
2
OBJECTS
0
DICTIONARY
5
C
100
AcDbDictionary
3
ACAD_GROUP
350
D
3
ACAD_MLINESTYLE
350
17
0
DICTIONARY
5
D
100
AcDbDictionary
0
DICTIONARY
5
1A
330
C
100
AcDbDictionary
0
DICTIONARY
5
17
100
AcDbDictionary
0
ENDSEC
0
EOF
