0
SECTION
2
HEADER
9
$INSUNITS
70
1
9
$ACADVER
1
AC1014
9
$HANDSEED
5
FFFF
0
ENDSEC
0
SECTION
2
TABLES
0
TABLE
2
VPORT
5
8
100
AcDbSymbolTable
0
ENDTAB
0
TABLE
2
LTYPE
5
5
100
AcDbSymbolTable
0
LTYPE
5
14
100
AcDbSymbolTableRecord
100
AcDbLinetypeTableRecord
2
BYBLOCK
70
0
0
LTYPE
5
15
100
AcDbSymbolTableRecord
100
AcDbLinetypeTableRecord
2
BYLAYER
70
0
0
ENDTAB
0
TABLE
2
LAYER
5
2
100
AcDbSymbolTable
70
2
0
LAYER
5
50
100
AcDbSymbolTableRecord
100
AcDbLayerTableRecord
2
0
70
0
6
CONTINUOUS
0
ENDTAB
0
TABLE
2
STYLE
5
3
100
AcDbSymbolTable
70
1
0
STYLE
5
11
100
AcDbSymbolTableRecord
100
AcDbTextStyleTableRecord
2
STANDARD
70
0
0
ENDTAB
0
TABLE
2
VIEW
5
6
100
AcDbSymbolTable
70
0
0
ENDTAB
0
TABLE
2
UCS
5
7
100
AcDbSymbolTable
70
0
0
ENDTAB
0
TABLE
2
APPID
5
9
100
AcDbSymbolTable
70
2
0
APPID
5
12
100
AcDbSymbolTableRecord
100
AcDbRegAppTableRecord
2
ACAD
70
0
0
ENDTAB
0
TABLE
2
DIMSTYLE
5
A
100
AcDbSymbolTable
70
1
0
ENDTAB
0
TABLE
2
BLOCK_RECORD
5
1
100
AcDbSymbolTable
70
1
0
BLOCK_RECORD
5
1F
100
AcDbSymbolTableRecord
100
AcDbBlockTableRecord
2
*MODEL_SPACE
0
BLOCK_RECORD
5
1B
100
AcDbSymbolTableRecord
100
AcDbBlockTableRecord
2
*PAPER_SPACE
0
ENDTAB
0
ENDSEC
0
SECTION
2
BLOCKS
0
BLOCK
5
20
100
AcDbEntity
100
AcDbBlockBegin
2
*MODEL_SPACE
0
ENDBLK
5
21
100
AcDbEntity
100
AcDbBlockEnd
0
BLOCK
5
1C
100
AcDbEntity
100
AcDbBlockBegin
2
*PAPER_SPACE
0
ENDBLK
5
1D
100
AcDbEntity
100
AcDbBlockEnd
0
ENDSEC
0
SECTION
2
ENTITIES
0
LWPOLYLINE
5
100
100
AcDbEntity
8
0
100
AcDbPolyline
90
17
70
1
43
0.0
10
-0.49999985461093854
20
4.1986698732036789
42
-0.99999999999999989
10
1.4539074747282493e-07
20
4.1986698732036771
10
1.4539074581186134e-07
20
3.9313913488569119
10
1.5049066339858428
20
2.1958127526772708
10
1.6220607866565391
20
1.2656090549683652
42
-0.53451113595079125
10
1.1509106229119503
20
0.85707847036527918
10
0.24668151227257232
20
1.1048156904022142
10
-0.34164034890585404
20
1.7833155424949911
10
-2.2133805540106573
20
1.7833155424949911
10
-2.7602295615295342
20
1.2364665349780521
10
-4.6664795615360664
20
1.2364665349780661
10
-4.6664795615360664
20
2.4175688971827891
10
-4.1822275930321355
20
2.901820865686727
10
-2.760229561527618
20
2.9018208656867137
10
-2.213380554008785
20
3.4486698732036527
10
-1.0567128912077892
20
3.4486698732036527
10
-0.49999985461096669
20
3.931391348856911
0
LWPOLYLINE
5
101
100
AcDbEntity
8
0
100
AcDbPolyline
90
4
70
1
43
0.0
10
-3.0102295615323809
20
1.5514271648973048
10
-2.7602295615339409
20
1.5514271648962519
10
-2.7602295615328889
20
1.80142714613196
10
-3.0102295615311006
20
1.8014271648955178
0
LWPOLYLINE
5
102
100
AcDbEntity
8
0
100
AcDbPolyline
90
4
70
1
43
0.0
10
-3.4164795498068341
20
1.5514271648990159
10
-3.4164795310434739
20
1.8014271953865608
10
-3.6664795615310184
20
1.8014272141499692
10
-3.6664795615324364
20
1.5514272024243636
0
CIRCLE
5
103
100
AcDbEntity
8
0
100
AcDbCircle
10
-0.24999985461007757
20
2.9486698732036754
30
0
40
0.062499999999999986
210
0
220
0
230
1
0
CIRCLE
5
104
100
AcDbEntity
8
0
100
AcDbCircle
10
-4.4789884469065404
20
2.1026082672617212
30
0
40
0.062499999999999799
210
0
220
0
230
1
0
CIRCLE
5
105
100
AcDbEntity
8
0
100
AcDbCircle
10
-4.4789884882707858
20
1.5514271648991436
30
0
40
0.062499999999999799
210
0
220
0
230
1
0
CIRCLE
5
106
100
AcDbEntity
8
0
100
AcDbCircle
10
-0.24999985461009552
20
4.1986698732036771
30
0
40
0.062499999999999986
210
0
220
0
230
1
0
CIRCLE
5
107
100
AcDbEntity
8
0
100
AcDbCircle
10
1.2500000000000122
20
1.2187499999999791
30
0
40
0.062499999999999972
210
0
220
0
230
1
0
ENDSEC
0
SECTION
2
OBJECTS
0
DICTIONARY
5
C
100
AcDbDictionary
3
ACAD_GROUP
350
D
3
ACAD_MLINESTYLE
350
17
0
DICTIONARY
5
D
100
AcDbDictionary
0
DICTIONARY
5
1A
330
C
100
AcDbDictionary
0
DICTIONARY
5
17
100
AcDbDictionary
0
ENDSEC
0
EOF
