0
SECTION
2
HEADER
9
$INSUNITS
70
1
9
$ACADVER
1
AC1014
9
$HANDSEED
5
FFFF
0
ENDSEC
0
SECTION
2
TABLES
0
TABLE
2
VPORT
5
8
100
AcDbSymbolTable
0
ENDTAB
0
TABLE
2
LTYPE
5
5
100
AcDbSymbolTable
0
LTYPE
5
14
100
AcDbSymbolTableRecord
100
AcDbLinetypeTableRecord
2
BYBLOCK
70
0
0
LTYPE
5
15
100
AcDbSymbolTableRecord
100
AcDbLinetypeTableRecord
2
BYLAYER
70
0
0
ENDTAB
0
TABLE
2
LAYER
5
2
100
AcDbSymbolTable
70
2
0
LAYER
5
50
100
AcDbSymbolTableRecord
100
AcDbLayerTableRecord
2
0
70
0
6
CONTINUOUS
0
ENDTAB
0
TABLE
2
STYLE
5
3
100
AcDbSymbolTable
70
1
0
STYLE
5
11
100
AcDbSymbolTableRecord
100
AcDbTextStyleTableRecord
2
STANDARD
70
0
0
ENDTAB
0
TABLE
2
VIEW
5
6
100
AcDbSymbolTable
70
0
0
ENDTAB
0
TABLE
2
UCS
5
7
100
AcDbSymbolTable
70
0
0
ENDTAB
0
TABLE
2
APPID
5
9
100
AcDbSymbolTable
70
2
0
APPID
5
12
100
AcDbSymbolTableRecord
100
AcDbRegAppTableRecord
2
ACAD
70
0
0
ENDTAB
0
TABLE
2
DIMSTYLE
5
A
100
AcDbSymbolTable
70
1
0
ENDTAB
0
TABLE
2
BLOCK_RECORD
5
1
100
AcDbSymbolTable
70
1
0
BLOCK_RECORD
5
1F
100
AcDbSymbolTableRecord
100
AcDbBlockTableRecord
2
*MODEL_SPACE
0
BLOCK_RECORD
5
1B
100
AcDbSymbolTableRecord
100
AcDbBlockTableRecord
2
*PAPER_SPACE
0
ENDTAB
0
ENDSEC
0
SECTION
2
BLOCKS
0
BLOCK
5
20
100
AcDbEntity
100
AcDbBlockBegin
2
*MODEL_SPACE
0
ENDBLK
5
21
100
AcDbEntity
100
AcDbBlockEnd
0
BLOCK
5
1C
100
AcDbEntity
100
AcDbBlockBegin
2
*PAPER_SPACE
0
ENDBLK
5
1D
100
AcDbEntity
100
AcDbBlockEnd
0
ENDSEC
0
SECTION
2
ENTITIES
0
LINE
5
100
100
AcDbEntity
8
0
100
AcDbLine
10
0.98687254690563186
20
-0.41290014890305438
30
0
11
0.98687254690563253
21
-0.16290014890305446
31
0
0
LINE
5
101
100
AcDbEntity
8
0
100
AcDbLine
10
0.98687254690563253
20
-0.16290014890305446
30
0
11
0.48687254690563275
21
-0.16290014890305446
31
0
0
LINE
5
102
100
AcDbEntity
8
0
100
AcDbLine
10
0.48687254690563275
20
-0.16290014890305446
30
0
11
0.48687254690563297
21
-0.41290014890305438
31
0
0
LINE
5
103
100
AcDbEntity
8
0
100
AcDbLine
10
0.48687254690563297
20
-0.41290014890305438
30
0
11
0.36187254690563297
21
-0.41290014890305471
31
0
0
SPLINE
5
104
100
AcDbEntity
8
0
100
AcDbSpline
70
4
71
5
72
12
73
6
74
0
42
0.000000001
43
0.0000000001
44
0.0000000001
40
0
40
0
40
0
40
0
40
0
40
0
40
0.20966766956446653
40
0.20966766956446653
40
0.20966766956446653
40
0.20966766956446653
40
0.20966766956446653
40
0.20966766956446653
41
1
41
1
41
1
41
1
41
1
41
1
10
0.36187254690563297
20
-0.41290014890305471
30
0
10
0.36187254690563336
20
-0.67498473585863783
30
0
10
0.55360496090791023
20
-0.94329042199505431
30
0
10
0.82005067079109251
20
-1.2016343316123592
30
0
10
1.100938618094581
20
-1.4389482138454694
30
0
10
1.3689493371757906
20
-1.6478345880631435
30
0
0
LINE
5
105
100
AcDbEntity
8
0
100
AcDbLine
10
1.3689493371757904
20
-1.6478345880631435
30
0
11
2.5426061135806619
21
-2.3586579280498645
31
0
0
ARC
5
106
100
AcDbEntity
8
0
100
AcDbCircle
10
2.7368725469056332
20
-2.037900148903053
30
0
40
0.37500000000000011
210
0
220
0
230
1
100
AcDbArc
50
238.79887380172929
51
267.14909383432399
0
SPLINE
5
107
100
AcDbEntity
8
0
100
AcDbSpline
70
4
71
5
72
13
73
7
74
0
42
0.000000001
43
0.0000000001
44
0.0000000001
40
0.49460160173681245
40
0.49460160173681245
40
0.49460160173681245
40
0.49460160173681245
40
0.49460160173681245
40
0.49460160173681245
40
0.5
40
0.50539839826310129
40
0.50539839826310129
40
0.50539839826310129
40
0.50539839826310129
40
0.50539839826310129
40
0.50539839826310129
41
1
41
1
41
1
41
1
41
1
41
1
41
1
10
2.7182211082024312
20
-2.4124360268030243
30
0
10
2.72195264580286
20
-2.4125470668122544
30
0
10
2.7294138464293902
20
-2.4127136297888034
30
0
10
2.736872546905524
20
-2.4127691527397865
30
0
10
2.7443312473816577
20
-2.4127136297888061
30
0
10
2.7517924480081879
20
-2.4125470668122602
30
0
10
2.7555239856085572
20
-2.4124360268030336
30
0
0
ARC
5
108
100
AcDbEntity
8
0
100
AcDbCircle
10
2.7368725469056332
20
-2.037900148903053
30
0
40
0.37499999999999717
210
-0
220
0
230
1
100
AcDbArc
50
272.85090616563349
51
301.2011261982729
0
LINE
5
109
100
AcDbEntity
8
0
100
AcDbLine
10
2.9311389802306169
20
-2.358657928049857
30
0
11
4.1047957566355002
21
-1.6478345880631287
31
0
0
SPLINE
5
110
100
AcDbEntity
8
0
100
AcDbSpline
70
4
71
5
72
12
73
6
74
0
42
0.000000001
43
0.0000000001
44
0.0000000001
40
0.7903323304355363
40
0.7903323304355363
40
0.7903323304355363
40
0.7903323304355363
40
0.7903323304355363
40
0.7903323304355363
40
1
40
1
40
1
40
1
40
1
40
1
41
1
41
1
41
1
41
1
41
1
41
1
10
4.104795756635502
20
-1.6478345880631275
30
0
10
4.3728064757167067
20
-1.4389482138454543
30
0
10
4.6536944230201884
20
-1.2016343316123468
30
0
10
4.9201401329033629
20
-0.94329042199504598
30
0
10
5.1118725469056328
20
-0.67498473585863372
30
0
10
5.1118725469056328
20
-0.4129001489030541
30
0
0
LINE
5
111
100
AcDbEntity
8
0
100
AcDbLine
10
5.1118725469056328
20
-0.4129001489030541
30
0
11
4.9868725469056328
21
-0.41290014890305377
31
0
0
LINE
5
112
100
AcDbEntity
8
0
100
AcDbLine
10
4.9868725469056328
20
-0.41290014890305377
30
0
11
4.9868725469056328
21
-0.16290014890305385
31
0
0
LINE
5
113
100
AcDbEntity
8
0
100
AcDbLine
10
4.9868725469056328
20
-0.16290014890305385
30
0
11
4.4868725469056328
21
-0.16290014890305399
31
0
0
LINE
5
114
100
AcDbEntity
8
0
100
AcDbLine
10
4.4868725469056328
20
-0.16290014890305399
30
0
11
4.4868725469056345
21
-0.41290014890305382
31
0
0
LINE
5
115
100
AcDbEntity
8
0
100
AcDbLine
10
4.4868725469056345
20
-0.41290014890305382
30
0
11
3.9868725469056332
21
-0.41290014890305365
31
0
0
SPLINE
5
116
100
AcDbEntity
8
0
100
AcDbSpline
70
4
71
5
72
15
73
9
74
0
42
0.000000001
43
0.0000000001
44
0.0000000001
40
-1
40
-1
40
-1
40
-1
40
-1
40
-1
40
-0.75
40
-0.5
40
-0.25
40
0
40
0
40
0
40
0
40
0
40
0
41
1
41
1
41
1
41
1
41
1
41
1
41
1
41
1
41
1
10
3.9868725469056332
20
-0.41290014890305365
30
0
10
3.9868725469056323
20
-0.9129001489030536
30
0
10
3.9868725469056332
20
-1.1629003375770537
30
0
10
3.7368725469056323
20
-1.1629001489030535
30
0
10
2.7368725469056332
20
-2.037900148903053
30
0
10
1.7368725469056332
20
-1.1629001489030539
30
0
10
1.4868725469056334
20
-1.1629001489030542
30
0
10
1.4868725469056334
20
-0.91290014890305393
30
0
10
1.4868725469056332
20
-0.41290014890305404
30
0
0
LINE
5
117
100
AcDbEntity
8
0
100
AcDbLine
10
1.4868725469056339
20
-0.41290014890305393
30
0
11
0.98687254690563186
21
-0.41290014890305438
31
0
0
CIRCLE
5
118
100
AcDbEntity
8
0
100
AcDbCircle
10
2.7368725469056332
20
-2.037900148903053
30
0
40
0.062500000000000153
210
0
220
-0
230
1
0
CIRCLE
5
119
100
AcDbEntity
8
0
100
AcDbCircle
10
1.2368725469056319
20
-0.63165014890305415
30
0
40
0.062499999999999972
210
0
220
-0
230
1
0
CIRCLE
5
120
100
AcDbEntity
8
0
100
AcDbCircle
10
4.2368725469056345
20
-0.63165014890305371
30
0
40
0.062499999999999799
210
0
220
-0
230
1
0
ENDSEC
0
SECTION
2
OBJECTS
0
DICTIONARY
5
C
100
AcDbDictionary
3
ACAD_GROUP
350
D
3
ACAD_MLINESTYLE
350
17
0
DICTIONARY
5
D
100
AcDbDictionary
0
DICTIONARY
5
1A
330
C
100
AcDbDictionary
0
DICTIONARY
5
17
100
AcDbDictionary
0
ENDSEC
0
EOF
