0
SECTION
2
HEADER
9
$INSUNITS
70
1
9
$ACADVER
1
AC1014
9
$HANDSEED
5
FFFF
0
ENDSEC
0
SECTION
2
TABLES
0
TABLE
2
VPORT
5
8
100
AcDbSymbolTable
0
ENDTAB
0
TABLE
2
LTYPE
5
5
100
AcDbSymbolTable
0
LTYPE
5
14
100
AcDbSymbolTableRecord
100
AcDbLinetypeTableRecord
2
BYBLOCK
70
0
0
LTYPE
5
15
100
AcDbSymbolTableRecord
100
AcDbLinetypeTableRecord
2
BYLAYER
70
0
0
ENDTAB
0
TABLE
2
LAYER
5
2
100
AcDbSymbolTable
70
2
0
LAYER
5
50
100
AcDbSymbolTableRecord
100
AcDbLayerTableRecord
2
0
70
0
6
CONTINUOUS
0
ENDTAB
0
TABLE
2
STYLE
5
3
100
AcDbSymbolTable
70
1
0
STYLE
5
11
100
AcDbSymbolTableRecord
100
AcDbTextStyleTableRecord
2
STANDARD
70
0
0
ENDTAB
0
TABLE
2
VIEW
5
6
100
AcDbSymbolTable
70
0
0
ENDTAB
0
TABLE
2
UCS
5
7
100
AcDbSymbolTable
70
0
0
ENDTAB
0
TABLE
2
APPID
5
9
100
AcDbSymbolTable
70
2
0
APPID
5
12
100
AcDbSymbolTableRecord
100
AcDbRegAppTableRecord
2
ACAD
70
0
0
ENDTAB
0
TABLE
2
DIMSTYLE
5
A
100
AcDbSymbolTable
70
1
0
ENDTAB
0
TABLE
2
BLOCK_RECORD
5
1
100
AcDbSymbolTable
70
1
0
BLOCK_RECORD
5
1F
100
AcDbSymbolTableRecord
100
AcDbBlockTableRecord
2
*MODEL_SPACE
0
BLOCK_RECORD
5
1B
100
AcDbSymbolTableRecord
100
AcDbBlockTableRecord
2
*PAPER_SPACE
0
ENDTAB
0
ENDSEC
0
SECTION
2
BLOCKS
0
BLOCK
5
20
100
AcDbEntity
100
AcDbBlockBegin
2
*MODEL_SPACE
0
ENDBLK
5
21
100
AcDbEntity
100
AcDbBlockEnd
0
BLOCK
5
1C
100
AcDbEntity
100
AcDbBlockBegin
2
*PAPER_SPACE
0
ENDBLK
5
1D
100
AcDbEntity
100
AcDbBlockEnd
0
ENDSEC
0
SECTION
2
ENTITIES
0
CIRCLE
5
100
100
AcDbEntity
8
0
100
AcDbCircle
10
2.1509736059709317
20
1.6338559112699413
30
-8.7419135797256413e-17
40
0.062499999999999972
210
0
220
-0
230
1
0
CIRCLE
5
101
100
AcDbEntity
8
0
100
AcDbCircle
10
2.3540986059702065
20
3.6807309112699431
30
-8.7419135797256413e-17
40
0.062499999999999972
210
0
220
-0
230
1
0
CIRCLE
5
102
100
AcDbEntity
8
0
100
AcDbCircle
10
1.0509736059750585
20
1.6338529123660126
30
-8.7419135797256413e-17
40
0.062499999999999986
210
0
220
-0
230
1
0
CIRCLE
5
103
100
AcDbEntity
8
0
100
AcDbCircle
10
0.4478486059710407
20
3.633852912366013
30
-8.7419135797256413e-17
40
0.062499999999999972
210
0
220
-0
230
1
0
LWPOLYLINE
5
104
100
AcDbEntity
8
0
100
AcDbPolyline
90
4
70
1
43
0.0
10
-1.5958944686141414
20
3.8807282241247925
10
-1.8458944686141412
20
3.8807282241247925
10
-1.8458944686141412
20
4.380728224124792
10
-1.5958944686141414
20
4.380728224124792
0
LWPOLYLINE
5
105
100
AcDbEntity
8
0
100
AcDbPolyline
90
4
70
1
43
0.0
10
3.4041055313858535
20
-1.6192717758752069
10
3.4041055313858535
20
-2.1192717758752067
10
3.1541055313858544
20
-2.1192717758752067
10
3.1541055313858544
20
-1.6192717758752069
0
LWPOLYLINE
5
106
100
AcDbEntity
8
0
100
AcDbPolyline
90
4
70
1
43
0.0
10
-1.5958944686141445
20
-1.6192717758752069
10
-1.5958944686141445
20
-2.1192717758752067
10
-1.8458944686141445
20
-2.1192717758752067
10
-1.8458944686141445
20
-1.6192717758752069
0
LWPOLYLINE
5
107
100
AcDbEntity
8
0
100
AcDbPolyline
90
4
70
1
43
0.0
10
3.4041055313858535
20
4.380728224124792
10
3.4041055313858535
20
3.8807282241247925
10
3.1541055313858544
20
3.8807282241247925
10
3.1541055313858544
20
4.380728224124792
0
LWPOLYLINE
5
108
100
AcDbEntity
8
0
100
AcDbPolyline
90
20
70
1
43
0.0
10
2.0291055313858481
20
-2.4942717758752355
10
2.0291055313858539
20
-2.2442717758752333
10
2.5291055313858544
20
-2.2442717758752333
10
2.5291055313858544
20
-2.4942717758752333
10
3.5291055313858544
20
-2.4942717758752067
10
3.529105531385853
20
4.755728224124792
10
2.5291055313858593
20
4.7557282241246748
10
2.5291055313858539
20
4.5057282241246748
10
2.0291055313858597
20
4.5057282241246916
10
2.0291055313858597
20
4.7557282241246916
10
-0.47089446861414413
20
4.7557282241247751
10
-0.47089446861414413
20
4.505728224124776
10
-0.97089446861414408
20
4.5057282241247929
10
-0.97089446861414408
20
4.755728224124792
10
-1.9708944686141443
20
4.755728224124792
10
-1.9708944686141454
20
-2.4942717758752067
10
-0.97089446861414441
20
-2.4942717758752062
10
-0.97089446861414441
20
-2.2442717758751893
10
-0.47089446861414447
20
-2.2442717758752071
10
-0.4708944686141443
20
-2.4942717758752067
0
ENDSEC
0
SECTION
2
OBJECTS
0
DICTIONARY
5
C
100
AcDbDictionary
3
ACAD_GROUP
350
D
3
ACAD_MLINESTYLE
350
17
0
DICTIONARY
5
D
100
AcDbDictionary
0
DICTIONARY
5
1A
330
C
100
AcDbDictionary
0
DICTIONARY
5
17
100
AcDbDictionary
0
ENDSEC
0
EOF
