0
SECTION
2
HEADER
9
$INSUNITS
70
1
9
$ACADVER
1
AC1014
9
$HANDSEED
5
FFFF
0
ENDSEC
0
SECTION
2
TABLES
0
TABLE
2
VPORT
5
8
100
AcDbSymbolTable
0
ENDTAB
0
TABLE
2
LTYPE
5
5
100
AcDbSymbolTable
0
LTYPE
5
14
100
AcDbSymbolTableRecord
100
AcDbLinetypeTableRecord
2
BYBLOCK
70
0
0
LTYPE
5
15
100
AcDbSymbolTableRecord
100
AcDbLinetypeTableRecord
2
BYLAYER
70
0
0
ENDTAB
0
TABLE
2
LAYER
5
2
100
AcDbSymbolTable
70
2
0
LAYER
5
50
100
AcDbSymbolTableRecord
100
AcDbLayerTableRecord
2
0
70
0
6
CONTINUOUS
0
ENDTAB
0
TABLE
2
STYLE
5
3
100
AcDbSymbolTable
70
1
0
STYLE
5
11
100
AcDbSymbolTableRecord
100
AcDbTextStyleTableRecord
2
STANDARD
70
0
0
ENDTAB
0
TABLE
2
VIEW
5
6
100
AcDbSymbolTable
70
0
0
ENDTAB
0
TABLE
2
UCS
5
7
100
AcDbSymbolTable
70
0
0
ENDTAB
0
TABLE
2
APPID
5
9
100
AcDbSymbolTable
70
2
0
APPID
5
12
100
AcDbSymbolTableRecord
100
AcDbRegAppTableRecord
2
ACAD
70
0
0
ENDTAB
0
TABLE
2
DIMSTYLE
5
A
100
AcDbSymbolTable
70
1
0
ENDTAB
0
TABLE
2
BLOCK_RECORD
5
1
100
AcDbSymbolTable
70
1
0
BLOCK_RECORD
5
1F
100
AcDbSymbolTableRecord
100
AcDbBlockTableRecord
2
*MODEL_SPACE
0
BLOCK_RECORD
5
1B
100
AcDbSymbolTableRecord
100
AcDbBlockTableRecord
2
*PAPER_SPACE
0
ENDTAB
0
ENDSEC
0
SECTION
2
BLOCKS
0
BLOCK
5
20
100
AcDbEntity
100
AcDbBlockBegin
2
*MODEL_SPACE
0
ENDBLK
5
21
100
AcDbEntity
100
AcDbBlockEnd
0
BLOCK
5
1C
100
AcDbEntity
100
AcDbBlockBegin
2
*PAPER_SPACE
0
ENDBLK
5
1D
100
AcDbEntity
100
AcDbBlockEnd
0
ENDSEC
0
SECTION
2
ENTITIES
0
LINE
5
100
100
AcDbEntity
8
0
100
AcDbLine
10
-2.0291055313845661
20
0.24999999999999997
30
0
11
-2.5291055313845616
21
0.24999999999999997
31
0
0
LINE
5
101
100
AcDbEntity
8
0
100
AcDbLine
10
-2.5291055313845616
20
0.24999999999999997
30
0
11
-2.5291055313845616
21
0
31
0
0
LINE
5
102
100
AcDbEntity
8
0
100
AcDbLine
10
-2.0291055313845661
20
0
30
0
11
-2.0291055313845661
21
0.24999999999999997
31
0
0
LINE
5
103
100
AcDbEntity
8
0
100
AcDbLine
10
-2.5291055313845616
20
-2.2499999999999996
30
0
11
-2.5291055313845616
21
-2.4999999999999996
31
0
0
LINE
5
104
100
AcDbEntity
8
0
100
AcDbLine
10
-2.5291055313845616
20
-2.4999999999999996
30
0
11
-2.0291055313845661
21
-2.4999999999999996
31
0
0
LINE
5
105
100
AcDbEntity
8
0
100
AcDbLine
10
-2.0291055313845661
20
-2.4999999999999996
30
0
11
-2.0291055313845661
21
-2.2499999999999996
31
0
0
LINE
5
106
100
AcDbEntity
8
0
100
AcDbLine
10
-3.529105531384559
20
-2.2499999999999996
30
0
11
-2.5291055313845594
21
-2.2499999999999996
31
4.9692025525733023e-30
0
LINE
5
107
100
AcDbEntity
8
0
100
AcDbLine
10
-2.0291055313845576
20
-2.2499999999999996
30
0
11
0.47089446861544193
21
-2.2499999999999996
31
0
0
LINE
5
108
100
AcDbEntity
8
0
100
AcDbLine
10
0.47089446861543338
20
-2.2499999999999996
30
0
11
0.47089446861543338
21
-2.4999999999999996
31
7.8808300542536108e-43
0
LINE
5
109
100
AcDbEntity
8
0
100
AcDbLine
10
0.47089446861543338
20
-2.4999999999999996
30
7.8808300542536108e-43
11
0.97089446861543183
21
-2.4999999999999996
31
0
0
LINE
5
110
100
AcDbEntity
8
0
100
AcDbLine
10
0.97089446861543183
20
-2.4999999999999996
30
0
11
0.97089446861543183
21
-2.2499999999999996
31
0
0
LINE
5
111
100
AcDbEntity
8
0
100
AcDbLine
10
0.97089446861544015
20
-2.2499999999999996
30
0
11
1.9708944686154399
21
-2.2499999999999996
31
0
0
LINE
5
112
100
AcDbEntity
8
0
100
AcDbLine
10
0.97089446861543183
20
0.24999999999999997
30
0
11
0.47089446861543338
21
0.24999999999999997
31
0
0
LINE
5
113
100
AcDbEntity
8
0
100
AcDbLine
10
0.47089446861543338
20
0.24999999999999997
30
0
11
0.47089446861543338
21
0
31
0
0
LINE
5
114
100
AcDbEntity
8
0
100
AcDbLine
10
0.97089446861543183
20
0
30
0
11
0.97089446861543183
21
0.24999999999999997
31
0
0
LINE
5
115
100
AcDbEntity
8
0
100
AcDbLine
10
-2.0291055313845576
20
0
30
0
11
0.47089446861544193
21
0
31
0
0
LINE
5
116
100
AcDbEntity
8
0
100
AcDbLine
10
-3.529105531384559
20
0
30
0
11
-2.5291055313845616
21
0
31
0
0
LINE
5
117
100
AcDbEntity
8
0
100
AcDbLine
10
1.9708944686154399
20
0
30
0
11
0.97089446861543183
21
0
31
0
0
LINE
5
118
100
AcDbEntity
8
0
100
AcDbLine
10
-3.529105531384559
20
-2.2499999999999996
30
0
11
-3.529105531384559
21
0
31
0
0
LINE
5
119
100
AcDbEntity
8
0
100
AcDbLine
10
1.9708944686154399
20
-2.2499999999999996
30
0
11
1.9708944686154399
21
0
31
0
0
LINE
5
120
100
AcDbEntity
8
0
100
AcDbLine
10
1.8458944686154051
20
-2.2499999999999996
30
0
11
1.5958944686154057
21
-2.2499999999999996
31
0
0
LINE
5
121
100
AcDbEntity
8
0
100
AcDbLine
10
-3.1541055313845932
20
-2.2499999999999996
30
0
11
-3.4041055313845923
21
-2.2499999999999996
31
0
0
LWPOLYLINE
5
122
100
AcDbEntity
8
0
100
AcDbPolyline
90
4
70
1
43
0.0
10
-3.1541055313845932
20
-1.375
10
-3.4041055313845932
20
-1.375
10
-3.4041055313845932
20
-0.875
10
-3.1541055313845932
20
-0.875
0
LWPOLYLINE
5
123
100
AcDbEntity
8
0
100
AcDbPolyline
90
4
70
1
43
0.0
10
1.5958944686154057
20
-1.375
10
1.8458944686154057
20
-1.375
10
1.8458944686154057
20
-0.875
10
1.5958944686154057
20
-0.875
0
LINE
5
124
100
AcDbEntity
8
0
100
AcDbLine
10
1.5958944686154057
20
-2.2499999999999996
30
0
11
1.5958944686154057
21
0
31
0
0
LINE
5
125
100
AcDbEntity
8
0
100
AcDbLine
10
1.8458944686154051
20
-2.2499999999999996
30
0
11
1.8458944686154051
21
0
31
0
0
LINE
5
126
100
AcDbEntity
8
0
100
AcDbLine
10
-3.4041055313845923
20
-2.2499999999999996
30
0
11
-3.4041055313845923
21
0
31
0
0
LINE
5
127
100
AcDbEntity
8
0
100
AcDbLine
10
-3.1541055313845932
20
-2.2499999999999996
30
0
11
-3.1541055313845932
21
-2.2000000702114555
31
0
0
LINE
5
128
100
AcDbEntity
8
0
100
AcDbLine
10
-3.1541055313845932
20
-2.2000000702114555
30
0
11
-3.1541055313845932
21
0
31
0
0
LINE
5
129
100
AcDbEntity
8
0
100
AcDbLine
10
0.47089446861543338
20
-2.2499999999999996
30
0
11
0.47089446861543338
21
-2.1835729561431036
31
-2.094000974570599e-43
0
LINE
5
130
100
AcDbEntity
8
0
100
AcDbLine
10
-3.5291055313856936
20
-2.2499999999999996
30
0
11
1.9708944686143042
21
-2.2499999999999996
31
0
0
LINE
5
131
100
AcDbEntity
8
0
100
AcDbLine
10
-2.4666055313858166
20
-2.2499999999999996
30
0
11
-2.4666055313858166
21
-1.3225990851814416e-16
31
0
0
LWPOLYLINE
5
132
100
AcDbEntity
8
0
100
AcDbPolyline
90
4
70
1
43
0.0
10
-2.1541055313858166
20
-1.875
10
-2.7791055313858162
20
-1.875
42
-0.99999999999999989
10
-2.7791055313858162
20
-1.3750000000000155
10
-2.1541055313858166
20
-1.3750000000000155
42
-0.99999999999999989
0
LINE
5
133
100
AcDbEntity
8
0
100
AcDbLine
10
-2.7791055313858162
20
-1.6250000000000078
30
0
11
-2.1541055313858166
21
-1.6250000000000078
31
0
0
LINE
5
134
100
AcDbEntity
8
0
100
AcDbLine
10
-2.0291055313856994
20
-2.2499999999999996
30
0
11
-2.5291055313856994
21
-2.2499999999999996
31
0
0
LINE
5
135
100
AcDbEntity
8
0
100
AcDbLine
10
-0.77910553138455785
20
0
30
0
11
-0.77910553138455785
21
-2.2499999999999996
31
0
0
LINE
5
136
100
AcDbEntity
8
0
100
AcDbLine
10
-3.529105531384559
20
-1.1249999999999998
30
0
11
1.9708944686154399
21
-1.1249999999999998
31
0
0
LWPOLYLINE
5
137
100
AcDbEntity
8
0
100
AcDbPolyline
90
4
70
1
43
0.0
10
-2.1541055313858166
20
-0.37499999999999983
10
-2.7791055313858162
20
-0.37499999999999983
42
0.99999999999999989
10
-2.7791055313858162
20
-0.87499999999998423
10
-2.1541055313858166
20
-0.87499999999998423
42
0.99999999999999989
0
LWPOLYLINE
5
138
100
AcDbEntity
8
0
100
AcDbPolyline
90
4
70
1
43
0.0
10
1.2208944686167005
20
-0.37499999999999983
42
-0.99999999999999989
10
1.2208944686167005
20
-0.87499999999998423
10
0.59589446861670103
20
-0.87499999999998423
42
-0.99999999999999989
10
0.59589446861670103
20
-0.37499999999999983
0
LWPOLYLINE
5
139
100
AcDbEntity
8
0
100
AcDbPolyline
90
4
70
1
43
0.0
10
0.59589446861670103
20
-1.875
10
1.2208944686167005
20
-1.875
42
0.99999999999999989
10
1.2208944686167005
20
-1.3750000000000155
10
0.59589446861670103
20
-1.3750000000000155
42
0.99999999999999989
0
LINE
5
140
100
AcDbEntity
8
0
100
AcDbLine
10
1.9708944686140619
20
-2.2499999999999996
30
-6.9935308637805131e-16
11
-3.5291055313859383
21
-2.2499999999999996
31
-6.9935308637805131e-16
0
LWPOLYLINE
5
141
100
AcDbEntity
8
0
100
AcDbPolyline
90
4
70
1
43
0.0
10
-0.4666055313845579
20
-1.8750000000000075
10
-1.0916055313845578
20
-1.8750000000000069
42
-0.99999999999999989
10
-1.0916055313845581
20
-1.3750000000000078
10
-0.46660553138455774
20
-1.3750000000000078
42
-0.99999999999999989
0
LINE
5
142
100
AcDbEntity
8
0
100
AcDbLine
10
-1.0916055313845578
20
-1.6250000000000073
30
0
11
-0.46660553138455785
21
-1.6250000000000078
31
0
0
LWPOLYLINE
5
143
100
AcDbEntity
8
0
100
AcDbPolyline
90
4
70
1
43
0.0
10
-0.46660553138455785
20
-0.37499999999999234
42
-0.99999999999999989
10
-0.46660553138455785
20
-0.87499999999999178
10
-1.0916055313845578
20
-0.8749999999999919
42
-0.99999999999999989
10
-1.0916055313845578
20
-0.37499999999999284
0
ENDSEC
0
SECTION
2
OBJECTS
0
DICTIONARY
5
C
100
AcDbDictionary
3
ACAD_GROUP
350
D
3
ACAD_MLINESTYLE
350
17
0
DICTIONARY
5
D
100
AcDbDictionary
0
DICTIONARY
5
1A
330
C
100
AcDbDictionary
0
DICTIONARY
5
17
100
AcDbDictionary
0
ENDSEC
0
EOF
